<svg width="800" height="600" viewBox="0 0 800 600" fill="none" xmlns="http://www.w3.org/2000/svg">
  <!-- Background Elements -->
  <circle cx="400" cy="300" r="250" fill="#EBF5FF" opacity="0.5"/>
  <circle cx="550" cy="200" r="120" fill="#E6F7F5" opacity="0.7"/>
  <circle cx="250" cy="400" r="150" fill="#E6F7F5" opacity="0.4"/>
  
  <!-- Doctor Figure -->
  <g transform="translate(320, 150)">
    <!-- Head -->
    <circle cx="80" cy="70" r="60" fill="#FFD8B4"/>
    <!-- Hair -->
    <path d="M40 50C40 50 30 30 50 20C70 10 90 10 110 20C130 30 120 50 120 50V70H40V50Z" fill="#4B4B4B"/>
    <!-- Face -->
    <circle cx="60" cy="60" r="5" fill="#333333"/> <!-- Left Eye -->
    <circle cx="100" cy="60" r="5" fill="#333333"/> <!-- Right Eye -->
    <path d="M70 80C70 80 80 90 90 80" stroke="#333333" stroke-width="2" stroke-linecap="round"/> <!-- Smile -->
    <!-- Stethoscope -->
    <circle cx="80" cy="140" r="8" fill="#333333"/>
    <path d="M80 140C80 140 80 170 60 190" stroke="#333333" stroke-width="4" stroke-linecap="round"/>
    <path d="M80 140C80 140 80 160 100 180" stroke="#333333" stroke-width="4" stroke-linecap="round"/>
    <!-- Body/Lab Coat -->
    <path d="M30 130C30 130 40 110 80 110C120 110 130 130 130 130V280H30V130Z" fill="#FFFFFF"/>
    <path d="M80 110V280" stroke="#F0F0F0" stroke-width="2"/>
    <!-- Collar -->
    <path d="M60 110L70 150L80 130L90 150L100 110" fill="#E6F7F5"/>
    <!-- Pocket -->
    <rect x="100" y="170" width="20" height="25" rx="2" fill="#F0F0F0"/>
    <!-- Arms -->
    <path d="M30 150C30 150 0 170 -10 220" stroke="#FFFFFF" stroke-width="20" stroke-linecap="round"/>
    <path d="M130 150C130 150 160 170 170 220" stroke="#FFFFFF" stroke-width="20" stroke-linecap="round"/>
    <!-- Hands -->
    <circle cx="-10" cy="220" r="15" fill="#FFD8B4"/>
    <circle cx="170" cy="220" r="15" fill="#FFD8B4"/>
  </g>
  
  <!-- Medical Icons -->
  <g transform="translate(150, 150)">
    <!-- Medical Cross -->
    <rect x="0" y="20" width="60" height="15" rx="5" fill="#3B82F6"/>
    <rect x="22.5" y="0" width="15" height="60" rx="5" fill="#3B82F6"/>
    <!-- Heartbeat Line -->
    <path d="M100 30L120 30L130 10L140 50L150 30L160 30L170 20L180 40L200 40" 
          stroke="#3B82F6" stroke-width="4" stroke-linecap="round" stroke-linejoin="round"/>
  </g>
  
  <!-- Medical Icons Bottom -->
  <g transform="translate(500, 400)">
    <!-- Pill -->
    <rect x="0" y="0" width="60" height="30" rx="15" fill="#14B8A6"/>
    <rect x="30" y="0" width="30" height="30" rx="15" fill="#0D9488"/>
    <!-- Clipboard -->
    <rect x="100" y="0" width="50" height="70" rx="5" fill="#F0F0F0"/>
    <rect x="100" y="0" width="50" height="15" rx="5" fill="#D1D5DB"/>
    <rect x="110" y="25" width="30" height="3" rx="1.5" fill="#9CA3AF"/>
    <rect x="110" y="35" width="30" height="3" rx="1.5" fill="#9CA3AF"/>
    <rect x="110" y="45" width="20" height="3" rx="1.5" fill="#9CA3AF"/>
  </g>
  
  <!-- Data Security Elements -->
  <g transform="translate(150, 400)">
    <!-- Shield -->
    <path d="M50 0L100 0L100 40C100 70 75 80 50 100C25 80 0 70 0 40L0 0L50 0Z" fill="#E6F7F5"/>
    <path d="M50 15L85 15L85 40C85 60 67.5 70 50 85C32.5 70 15 60 15 40L15 15L50 15Z" fill="#14B8A6"/>
    <path d="M40 45L47 52L65 35" stroke="white" stroke-width="5" stroke-linecap="round" stroke-linejoin="round"/>
  </g>
  
  <!-- Abstract Decorative Elements -->
  <circle cx="700" cy="100" r="30" fill="#3B82F6" opacity="0.2"/>
  <circle cx="730" cy="150" r="20" fill="#14B8A6" opacity="0.2"/>
  <circle cx="680" cy="180" r="25" fill="#3B82F6" opacity="0.2"/>
  
  <circle cx="100" cy="500" r="30" fill="#3B82F6" opacity="0.2"/>
  <circle cx="70" cy="450" r="20" fill="#14B8A6" opacity="0.2"/>
  <circle cx="120" cy="420" r="25" fill="#3B82F6" opacity="0.2"/>
</svg>
